<?xml version="1.0" encoding="UTF-8" standalone="no" ?>
<!DOCTYPE svg PUBLIC "-//W3C//DTD SVG 1.1//EN" "http://www.w3.org/Graphics/SVG/1.1/DTD/svg11.dtd">
<svg xmlns="http://www.w3.org/2000/svg" xmlns:xlink="http://www.w3.org/1999/xlink" version="1.1" width="1080" height="1080" viewBox="0 0 1080 1080" xml:space="preserve">
<desc>Created with Fabric.js 5.2.4</desc>
<defs>
</defs>
<g transform="matrix(1 0 0 1 540 540)" id="11e61785-1a65-4955-8626-764814f157a4"  >
<rect style="stroke: none; stroke-width: 1; stroke-dasharray: none; stroke-linecap: butt; stroke-dashoffset: 0; stroke-linejoin: miter; stroke-miterlimit: 4; fill: rgb(255,255,255); fill-rule: nonzero; opacity: 1; visibility: hidden;" vector-effect="non-scaling-stroke"  x="-540" y="-540" rx="0" ry="0" width="1080" height="1080" />
</g>
<g transform="matrix(1 0 0 1 540 540)" id="9df9c461-e9bb-4ec8-a2c6-e19d8ebbdf6e"  >
</g>
<g transform="matrix(2.18 0 0 2.18 540 540)"  >
<g style="" vector-effect="non-scaling-stroke"   >
		<g transform="matrix(1 0 0 1 0 0)"  >
<rect style="stroke: none; stroke-width: 1; stroke-dasharray: none; stroke-linecap: butt; stroke-dashoffset: 0; stroke-linejoin: miter; stroke-miterlimit: 4; fill: rgb(255,255,255); fill-rule: nonzero; opacity: 1; visibility: hidden;" vector-effect="non-scaling-stroke"  x="-540" y="-540" rx="0" ry="0" width="1080" height="1080" />
</g>
		<g transform="matrix(1 0 0 1 0 0)"  >
<path style="stroke: rgb(0,0,0); stroke-width: 0; stroke-dasharray: none; stroke-linecap: butt; stroke-dashoffset: 0; stroke-linejoin: miter; stroke-miterlimit: 4; fill: rgb(255,255,255); fill-rule: nonzero; opacity: 1;" vector-effect="non-scaling-stroke"  transform=" translate(-110, -110)" d="M 110 0 C 49.346 0 0 49.346 0 110 C 0 170.654 49.346 220 110 220 C 170.654 220 220 170.654 220 110 C 220 49.346000000000004 170.654 0 110 0 z M 110 190 C 65.888 190 30 154.112 30 110 C 30 65.888 65.888 30 110 30 C 154.112 30 190 65.888 190 110 C 190 154.112 154.112 190 110 190 z M 139.718 128.264 L 155.93599999999998 143.329 L 147.76399999999998 150.481 C 137.528 159.43699999999998 124.45199999999998 164.37099999999998 110.94699999999997 164.37099999999998 C 80.60299999999998 164.37099999999998 55.915999999999976 140.19299999999998 55.915999999999976 110.47599999999997 C 55.915999999999976 80.82699999999997 80.60299999999998 56.70499999999997 110.94699999999997 56.70499999999997 C 124.46299999999998 56.70499999999997 137.49499999999998 61.59299999999997 147.63899999999998 70.46899999999997 L 155.51199999999997 77.35899999999997 L 139.97 92.91 L 133.069 86.813 C 127.13199999999999 81.57000000000001 119.27699999999999 78.682 110.94699999999999 78.682 C 92.72099999999999 78.682 77.89299999999999 92.94500000000001 77.89299999999999 110.475 C 77.89299999999999 128.075 92.72099999999999 142.393 110.94699999999999 142.393 C 119.18499999999999 142.393 127.041 139.46 133.069 134.135 L 139.718 128.264 z" stroke-linecap="round" />
</g>
</g>
</g>
</svg>